<svg id="Icon_ionic-ios-help-circle-outline" data-name="Icon ionic-ios-help-circle-outline" xmlns="http://www.w3.org/2000/svg" width="58.165" height="58.165" viewBox="0 0 58.165 58.165">
  <path id="Path_3" data-name="Path 3" d="M32.458,7.29a25.172,25.172,0,0,1,17.8,42.967,25.172,25.172,0,0,1-35.6-35.6,25,25,0,0,1,17.8-7.369m0-3.915A29.083,29.083,0,1,0,61.54,32.458,29.078,29.078,0,0,0,32.458,3.375Z" transform="translate(-3.375 -3.375)" fill="#fff"/>
  <path id="Path_4" data-name="Path 4" d="M22.546,11.25c5.243,0,8.851,2.908,8.851,7.089,0,2.768-1.342,4.684-3.929,6.208-2.433,1.412-3.258,2.447-3.258,4.237v1.1H19.358l-.042-1.2c-.238-2.88.769-4.67,3.3-6.152,2.363-1.412,3.356-2.307,3.356-4.041s-1.678-3.006-3.761-3.006a3.537,3.537,0,0,0-3.747,3.44H13.5C13.6,14.424,16.926,11.25,22.546,11.25ZM18.869,35.215a3,3,0,1,1,2.992,2.88A2.928,2.928,0,0,1,18.869,35.215Z" transform="translate(6.634 4.41)" fill="#fff"/>
</svg>
